<svg width="73" height="72" viewBox="0 0 73 72" fill="none" xmlns="http://www.w3.org/2000/svg">
<g id="&#231;&#155;&#190;&#231;&#137;&#140;,&#229;&#174;&#137;&#229;&#133;&#168;,&#228;&#191;&#157;&#230;&#138;&#164;">
<path id="Vector" d="M36.5001 4.5C38.7008 4.5 40.9157 4.725 43.0743 5.16797C45.254 5.61797 47.3985 6.29297 49.4446 7.17891L63.5071 13.268V31.0008C63.5141 35.1984 62.804 39.3328 61.3907 43.2844C59.9985 47.2008 58.0157 50.85 55.4915 54.1336L55.4844 54.1477L55.4774 54.1617C52.9532 57.5016 49.9297 60.3844 46.4844 62.7398C43.4188 64.8281 40.0649 66.375 36.5071 67.3453C32.9352 66.375 29.5672 64.8141 26.4946 62.7188C23.0493 60.3633 20.0258 57.4805 17.5016 54.1406L17.4946 54.1336L17.4876 54.1266C14.9844 50.85 13.0157 47.2078 11.6305 43.3055V43.2914C10.2172 39.3398 9.50709 35.2055 9.52115 31.0078V13.275L23.5766 7.18594C25.6227 6.3 27.7672 5.625 29.9469 5.175C32.0844 4.725 34.2922 4.5 36.5001 4.5ZM36.5001 0C31.4868 0 26.4665 1.01953 21.7696 3.05859L5.00006 10.3148V31.0008C4.986 35.7117 5.79459 40.3805 7.37662 44.8102C8.90943 49.1484 11.1102 53.2125 13.8946 56.8617C16.7071 60.5812 20.1032 63.8156 23.9422 66.4453C27.7602 69.0539 32.0071 70.9383 36.493 72C40.9649 70.9383 45.2047 69.0609 49.0087 66.4664C52.8547 63.8438 56.2438 60.6023 59.0563 56.8828C61.8618 53.2266 64.0766 49.1484 65.6235 44.7961C67.2055 40.3664 68.0071 35.6906 68.0001 30.9867V10.3148L51.2235 3.05156C46.5266 1.01953 41.5133 0 36.5001 0Z" fill="white"/>
<path id="Vector_2" d="M36.5001 9C40.3532 9 44.1079 9.78047 47.6516 11.3133L59.0001 16.2281V31.0078C59.0071 34.6852 58.3883 38.3062 57.1508 41.7727V41.7867C55.9204 45.2531 54.1626 48.4945 51.9266 51.4055L51.9055 51.4336L51.8844 51.4617C49.6485 54.4008 46.9837 56.9531 43.9391 59.0273C41.6258 60.6023 39.1297 61.8188 36.493 62.6625C33.8422 61.8188 31.3391 60.5953 29.0188 59.0063C25.9743 56.925 23.3024 54.3797 21.0735 51.4266L21.0594 51.4055L21.0454 51.3844C18.8235 48.4805 17.0797 45.2531 15.8563 41.7938L15.8493 41.7797L15.8422 41.7656C14.6118 38.3203 13.993 34.6992 14.0001 31.0219V16.2281L25.3415 11.3133C28.8852 9.78047 32.6399 9 36.5001 9Z" fill="white"/>
</g>
</svg>
