<svg width="73" height="72" viewBox="0 0 73 72" fill="none" xmlns="http://www.w3.org/2000/svg">
<g id="&#233;&#162;&#132;&#232;&#173;&#166;">
<path id="Vector" d="M17.3821 64.9946H12.3071V41.4914C12.3071 28.1538 23.1168 17.3364 36.4621 17.3364C49.8055 17.3364 60.6151 28.1558 60.6151 41.4914V64.9946H17.3841L17.3821 64.9946ZM38.2096 27.072L26.2945 46.695H35.8239L33.4381 61.4121L45.3532 41.7892H35.8239L38.2096 27.072ZM56.4821 5.51482C57.0194 5.82796 57.411 6.34094 57.5714 6.94177C57.7318 7.54261 57.648 8.1825 57.3383 8.72177L53.0553 16.1689L49.0077 13.826L53.2887 6.37875C53.4407 6.11318 53.6435 5.88016 53.8856 5.69301C54.1277 5.50585 54.4043 5.36822 54.6995 5.28799C54.9948 5.20775 55.303 5.18648 55.6065 5.22539C55.91 5.2643 56.2029 5.36262 56.4684 5.51475H56.482L56.4821 5.51482ZM36.4543 0C37.8553 0 38.9878 1.05469 38.9878 2.36433V10.8039H33.9206V2.35842C33.9207 1.05469 35.0532 0 36.4543 0H36.4543ZM16.4402 5.51482C16.706 5.36101 16.9996 5.26114 17.304 5.22092C17.6085 5.18071 17.9179 5.20095 18.2145 5.28048C18.5111 5.36001 18.7892 5.49727 19.0327 5.6844C19.2762 5.87153 19.4804 6.10486 19.6336 6.37102L23.9166 13.8182L19.869 16.1631L15.5821 8.71397C15.2727 8.17587 15.1891 7.53713 15.3496 6.93756C15.5101 6.33798 15.9016 5.82639 16.4383 5.51475L16.4402 5.51482ZM1.7874 20.232C1.94004 19.9655 2.14387 19.7319 2.38716 19.5445C2.63044 19.3571 2.90838 19.2197 3.20498 19.1401C3.50158 19.0605 3.81098 19.0404 4.1154 19.0808C4.41981 19.1213 4.71322 19.2215 4.97874 19.3758L12.3986 23.6802L10.0635 27.7433L2.64148 23.433C2.10422 23.1214 1.71242 22.6095 1.55193 22.0094C1.39144 21.4094 1.47536 20.7703 1.78529 20.232H1.7874ZM71.1351 20.232C71.4448 20.7713 71.5285 21.4112 71.3681 22.012C71.2077 22.6129 70.8161 23.1258 70.2788 23.439L62.8608 27.7375L60.5258 23.6725L67.9437 19.37C68.4789 19.0611 69.1147 18.977 69.7118 19.136C70.3088 19.2951 70.8186 19.6843 71.1292 20.2184C71.1292 20.2262 71.1351 20.2262 71.1351 20.232ZM4.031 64.9946H68.8991C70.3002 64.9946 71.4405 66.135 71.4405 67.536C71.4405 68.937 70.3002 70.0774 68.8991 70.0774H4.03107C2.62995 70.0774 1.48962 68.939 1.48962 67.536C1.48885 67.202 1.55407 66.8712 1.68151 66.5625C1.80896 66.2538 1.99613 65.9734 2.23228 65.7372C2.46843 65.5011 2.74891 65.3139 3.0576 65.1865C3.36629 65.0591 3.69704 64.9938 4.031 64.9946Z" fill="white"/>
</g>
</svg>
