<svg width="73" height="72" viewBox="0 0 73 72" fill="none" xmlns="http://www.w3.org/2000/svg">
<g id="&#228;&#186;&#145;&#230;&#156;&#141;&#229;&#138;&#161;&#229;&#153;&#168;,&#228;&#186;&#145;&#231;&#171;&#175;" clip-path="url(#clip0_181_701)">
<path id="Vector" d="M52.4187 20.9321C49.1141 14.4352 42.2375 9.9563 34.2641 9.9563C23.5766 9.9563 14.8437 17.993 14.0844 28.1672C6.22344 30.3399 0.5 36.9985 0.5 44.8805C0.5 54.1688 8.45937 61.8047 18.5 62.3391H52.2641C63.4437 62.3391 72.5141 53.0579 72.5141 41.604C72.5141 30.5719 63.6266 21.586 52.4187 20.9321ZM45.5141 54C45.5141 55.2446 44.5086 56.25 43.2641 56.25H25.2641C24.0195 56.25 23.0141 55.2446 23.0141 54V22.5C23.0141 21.2555 24.0195 20.25 25.2641 20.25H43.2641C44.5086 20.25 45.5141 21.2555 45.5141 22.5V54Z" fill="white"/>
<path id="Vector_2" d="M27.7953 24.75C27.6406 24.75 27.5141 24.8766 27.5141 25.0312V51.4688C27.5141 51.6234 27.6406 51.75 27.7953 51.75H40.7328C40.8875 51.75 41.0141 51.6234 41.0141 51.4688V24.75H27.7953ZM35.8531 46.5539C35.4453 46.9617 34.8828 47.2148 34.2641 47.2148C33.0195 47.2148 32.0141 46.2094 32.0141 44.9648C32.0141 44.3461 32.2672 43.7836 32.675 43.3758C33.0828 42.968 33.6453 42.7148 34.2641 42.7148C34.8828 42.7148 35.4453 42.968 35.8531 43.3758C36.2609 43.7836 36.5141 44.3461 36.5141 44.9648C36.5141 45.5836 36.2609 46.1461 35.8531 46.5539ZM38.7641 37.7227C38.7641 38.032 38.5109 38.2852 38.2016 38.2852H30.3266C30.0172 38.2852 29.7641 38.032 29.7641 37.7227V34.3477C29.7641 34.0383 30.0172 33.7852 30.3266 33.7852H38.2016C38.5109 33.7852 38.7641 34.0383 38.7641 34.3477V37.7227ZM38.7641 30.9727C38.7641 31.282 38.5109 31.5352 38.2016 31.5352H30.3266C30.0172 31.5352 29.7641 31.282 29.7641 30.9727V27.5977C29.7641 27.2883 30.0172 27.0352 30.3266 27.0352H38.2016C38.5109 27.0352 38.7641 27.2883 38.7641 27.5977V30.9727Z" fill="white"/>
</g>
<defs>
<clipPath id="clip0_181_701">
<rect width="72" height="72" fill="white" transform="translate(0.5)"/>
</clipPath>
</defs>
</svg>
