<svg width="73" height="72" viewBox="0 0 73 72" fill="none" xmlns="http://www.w3.org/2000/svg">
<g id="policy" clip-path="url(#clip0_181_720)">
<path id="Vector" d="M40.2241 60.0359V55.0862H0.5V60.0559C0.5 64.5565 4.13693 68.2758 8.63802 68.2758H44.2277C43.8864 67.9655 43.5574 67.6933 43.2464 67.3817C42.284 66.4165 41.5216 65.2707 41.0029 64.0101C40.4843 62.7495 40.2197 61.399 40.2241 60.0359ZM28.6262 30.0294L34.3906 33.9869L40.1774 30.0294C41.7602 28.9499 43.0172 26.5138 43.0172 24.5984V16.4203L34.4052 12.161L25.7931 16.4095V24.5984C25.7931 26.5132 27.043 28.9499 28.6262 30.0294ZM29.9239 22.3C30.0253 22.1996 30.1454 22.1202 30.2775 22.0662C30.4095 22.0123 30.5509 21.9849 30.6936 21.9856C30.8362 21.9863 30.9773 22.0151 31.1088 22.0704C31.2403 22.1257 31.3597 22.2063 31.46 22.3077L33.1911 24.0559L37.3576 19.89C37.4585 19.7891 37.5783 19.709 37.7102 19.6544C37.8421 19.5998 37.9834 19.5718 38.1261 19.5718C38.2688 19.5719 38.4101 19.6001 38.5419 19.6548C38.6737 19.7095 38.7935 19.7896 38.8943 19.8906C39.098 20.0944 39.2123 20.3708 39.2122 20.659C39.2121 20.9471 39.0975 21.2234 38.8937 21.4271L33.9555 26.3678C33.752 26.5724 33.4759 26.6881 33.1874 26.6896H33.1851C33.0416 26.6889 32.8998 26.6596 32.7678 26.6036C32.6357 26.5476 32.5161 26.466 32.4159 26.3635L29.916 23.8383C29.7134 23.6331 29.6005 23.3559 29.602 23.0675C29.6035 22.7791 29.7193 22.5031 29.9239 22.3ZM66.7423 3.72412H66.7077C63.5163 3.72412 60.8621 6.3906 60.8621 9.58374V19.5517H72.5V9.56435C72.5146 6.36516 69.9415 3.755 66.7423 3.72412Z" fill="white"/>
<path id="Vector_2" d="M17.1762 3.72412C14.1581 3.72412 11.7019 6.14745 11.7019 9.11993L11.3815 52.9138H41.3103C41.6035 52.9254 41.8807 53.0505 42.0834 53.2627C42.2861 53.4748 42.3984 53.7575 42.3966 54.0509V60.0359C42.3857 64.5607 46.0335 68.2431 50.5577 68.2758H50.585C55.0928 68.2433 58.7207 64.5626 58.6897 60.0548V9.58545C58.6897 7.3024 59.7171 5.27585 61.2609 3.72412H17.1762ZM23.6207 15.7318C23.614 15.5315 23.6644 15.3335 23.7661 15.1608C23.8677 14.9881 24.0164 14.8479 24.1948 14.7566L33.9221 9.97586C34.0695 9.90288 34.2317 9.86491 34.3962 9.86491C34.5606 9.86491 34.7229 9.90288 34.8702 9.97586L44.6151 14.7699C44.7935 14.8612 44.9422 15.0014 45.0439 15.1741C45.1457 15.3468 45.1962 15.5449 45.1897 15.7452V24.5984C45.1897 27.2332 43.5816 30.3398 41.4038 31.8243L35.0223 36.2002C34.8434 36.3232 34.6314 36.3891 34.4143 36.3892C34.1981 36.3895 33.9869 36.3234 33.8093 36.2L27.4091 31.8241C25.2325 30.3393 23.6207 27.2327 23.6207 24.5985V15.7318ZM49.8448 47.9483H20.0517C19.4517 47.9483 18.9655 47.4621 18.9655 46.8621C18.9655 46.262 19.4517 45.7758 20.0517 45.7758H49.8448C50.4449 45.7758 50.931 46.262 50.931 46.8621C50.931 47.4621 50.4449 47.9483 49.8448 47.9483ZM49.8448 42.2069H20.0517C19.4517 42.2069 18.9655 41.7207 18.9655 41.1207C18.9655 40.5206 19.4517 40.0345 20.0517 40.0345H49.8448C50.4449 40.0345 50.931 40.5206 50.931 41.1207C50.931 41.7207 50.4449 42.2069 49.8448 42.2069Z" fill="white"/>
</g>
<defs>
<clipPath id="clip0_181_720">
<rect width="72" height="72" fill="white" transform="translate(0.5)"/>
</clipPath>
</defs>
</svg>
