<svg width="73" height="72" viewBox="0 0 73 72" fill="none" xmlns="http://www.w3.org/2000/svg">
<g id="&#231;&#155;&#145;&#230;&#142;&#167;">
<path id="Vector" d="M50.88 57.6641L55.312 64.3281C49.7399 68.0368 43.1935 70.0106 36.5 70.0001C30.3758 70.0093 24.3637 68.3573 19.104 65.22L18 64.532L22.36 57.8241C26.5682 60.5589 31.4813 62.0099 36.5 62.0001C41.696 62.0001 46.652 60.4801 50.88 57.6641ZM8.01993 17.4241L14.7159 21.7961C11.9551 26.0181 10.4897 30.9555 10.5001 36.0001C10.5001 40.7681 11.78 45.3401 14.172 49.3281L14.792 50.312L8.11598 54.7241C4.44366 49.1707 2.49022 42.6578 2.49998 36.0001C2.49998 29.3121 4.44004 22.9041 8.02 17.4201L8.01993 17.4241ZM65.02 17.484C68.6054 22.9932 70.5095 29.4269 70.5 36.0001C70.5 42.2281 68.82 48.2201 65.6921 53.4401L65 54.5481L58.3 50.1801C61.0507 45.9631 62.5105 41.0348 62.5 36.0001C62.5086 31.3667 61.2722 26.816 58.92 22.8241L58.316 21.8481L65.02 17.4881L65.02 17.484ZM36.5 18.0001C41.2739 18.0001 45.8523 19.8965 49.2279 23.2721C52.6036 26.6478 54.5 31.2262 54.5 36.0001C54.5 40.774 52.6036 45.3523 49.2279 48.728C45.8523 52.1036 41.2739 54.0001 36.5 54.0001C31.7261 54.0001 27.1477 52.1036 23.7721 48.728C20.3964 45.3523 18.5 40.774 18.5 36.0001C18.5 31.2262 20.3964 26.6478 23.7721 23.2721C27.1477 19.8965 31.7261 18.0001 36.5 18.0001ZM36.5 26.0001C33.8478 26.0001 31.3043 27.0536 29.429 28.929C27.5536 30.8044 26.5 33.3479 26.5 36.0001C26.5 38.6522 27.5536 41.1958 29.429 43.0711C31.3043 44.9465 33.8478 46 36.5 46C39.1522 46 41.6957 44.9465 43.5711 43.0711C45.4464 41.1958 46.5 38.6522 46.5 36.0001C46.5 33.3479 45.4464 30.8044 43.5711 28.929C41.6957 27.0536 39.1522 26.0001 36.5 26.0001ZM36.5 2.00004C42.856 2.00004 48.956 3.75208 54.248 6.99609L55.368 7.71609L50.928 14.3641C46.6588 11.5087 41.636 9.98945 36.5 10.0001C31.846 9.99177 27.276 11.2396 23.272 13.612L22.292 14.2201L17.916 7.52407C23.4397 3.91048 29.8993 1.9904 36.5 2.00004Z" fill="white"/>
</g>
</svg>
