<svg width="73" height="72" viewBox="0 0 73 72" fill="none" xmlns="http://www.w3.org/2000/svg">
<g id="&#230;&#149;&#176;&#230;&#141;&#174;&#229;&#164;&#135;&#228;&#187;&#189;">
<path id="Vector" d="M53.06 58.68H52.7H52.34C46.94 58.68 42.26 57.24 40.1 55.08V59.04C41.9 61.2 46.58 62.64 52.34 62.64H53.06C58.82 62.64 63.5 61.2 65.3 59.04V55.08C63.5 57.24 58.46 58.68 53.06 58.68ZM7.70001 50.4V58.32C7.70001 60.48 9.50001 61.92 11.66 61.92H35.78V46.44H11.66C9.50001 46.44 7.70001 48.24 7.70001 50.4ZM12.02 50.4H20.3V57.96H12.02V50.4ZM53.06 51.12H52.7H52.34C46.94 51.12 42.26 49.68 40.1 47.52V51.48C41.9 53.64 46.58 55.08 52.34 55.08H53.06C58.82 55.08 63.5 53.64 65.3 51.48V47.52C63.5 49.68 58.46 51.12 53.06 51.12ZM52.7 36H52.34C46.58 36 41.9 37.44 40.1 39.6V43.56C41.9 45.72 46.58 47.16 52.34 47.16H53.06C58.46 47.16 63.14 45.72 65.3 43.56V39.6C63.5 37.44 58.82 36 53.06 36H52.7Z" fill="white"/>
<path id="Vector_2" d="M61.34 27H11.66C9.50001 27 7.70001 28.44 7.70001 30.6V38.52C7.70001 40.68 9.50001 42.4799 11.66 42.4799H35.78V39.6C35.78 34.92 40.1 30.96 45.14 30.96H65.3V30.6C65.3 28.44 63.5 27 61.34 27ZM20.3 38.52H12.02V30.6H20.3V38.52ZM61.34 7.19995H11.66C9.50001 7.19995 7.70001 8.99995 7.70001 11.16V19.08C7.70001 21.24 9.50001 23.04 11.66 23.04H60.98C63.14 23.04 64.94 21.24 64.94 19.08V11.16C65.3 8.99995 63.5 7.19995 61.34 7.19995ZM20.3 19.08H12.02V11.16H20.3V19.08Z" fill="white"/>
</g>
</svg>
