<svg width="73" height="72" viewBox="0 0 73 72" fill="none" xmlns="http://www.w3.org/2000/svg">
<g id="24gf-bricks">
<path id="Vector" d="M48.5 39V51H24.5V39H48.5ZM66.5 24H39.5V36H62C62.3978 36 62.7794 36.158 63.0607 36.4393C63.342 36.7206 63.5 37.1022 63.5 37.5C63.5 37.8978 63.342 38.2794 63.0607 38.5607C62.7794 38.842 62.3978 39 62 39H51.5V51H66.5V24ZM6.5 39V51H21.5V39H6.5ZM6.5 36H36.5V22.5C36.5 22.303 36.5388 22.108 36.6142 21.926C36.6896 21.744 36.8001 21.5786 36.9393 21.4393C37.0786 21.3001 37.244 21.1896 37.426 21.1142C37.608 21.0388 37.803 21 38 21H48.5V6H24.5V21H32C32.3978 21 32.7794 21.158 33.0607 21.4393C33.342 21.7206 33.5 22.1022 33.5 22.5C33.5 22.8978 33.342 23.2794 33.0607 23.5607C32.7794 23.842 32.3978 24 32 24H6.5V36ZM36.5 54H6.5V62.25C6.50112 63.2442 6.89656 64.1974 7.59958 64.9004C8.3026 65.6034 9.25578 65.9989 10.25 66H36.5V54ZM39.5 54V66H62.75C63.7442 65.9989 64.6974 65.6034 65.4004 64.9004C66.1034 64.1974 66.4989 63.2442 66.5 62.25V54H39.5ZM21.5 21V6H10.25C9.25578 6.00112 8.3026 6.39656 7.59958 7.09958C6.89656 7.8026 6.50112 8.75578 6.5 9.75V21H21.5ZM51.5 21H66.5V9.75C66.4989 8.75578 66.1034 7.8026 65.4004 7.09958C64.6974 6.39656 63.7442 6.00112 62.75 6H51.5V21Z" fill="white"/>
</g>
</svg>
