<svg width="20" height="20" viewBox="0 0 20 20" fill="none" xmlns="http://www.w3.org/2000/svg">
<g id="&#232;&#175;&#173;&#232;&#168;&#128; 1">
<g id="Group 741974">
<path id="Vector" d="M10 19C14.9706 19 19 14.9706 19 10C19 5.02944 14.9706 1 10 1C5.02944 1 1 5.02944 1 10C1 14.9706 5.02944 19 10 19Z" fill="#D80027"/>
<g id="Group">
<path id="Vector_2" d="M5.92539 6.47734L6.70234 8.86797H9.21602L7.18398 10.348L7.96094 12.7387L5.92539 11.2621L3.88984 12.7387L4.67031 10.348L2.63477 8.86797H5.14844L5.92539 6.47734Z" fill="#FFDA44"/>
<path id="Vector_3" d="M11.67 14.9395L11.0758 14.2082L10.1969 14.5492L10.7067 13.7582L10.1125 13.0234L11.0231 13.266L11.5364 12.475L11.5856 13.4172L12.4997 13.6598L11.6172 13.9973L11.67 14.9395Z" fill="#FFDA44"/>
<path id="Vector_4" d="M12.8512 12.7949L13.1325 11.8949L12.3625 11.35L13.3047 11.3359L13.5825 10.4359L13.8883 11.3289L14.8305 11.3184L14.0747 11.8809L14.377 12.7738L13.6071 12.2289L12.8512 12.7949Z" fill="#FFDA44"/>
<path id="Vector_5" d="M14.4437 7.60586L14.0289 8.45313L14.7039 9.11055L13.7722 8.97696L13.3574 9.82071L13.1957 8.89258L12.2605 8.75899L13.0972 8.31953L12.9355 7.38789L13.6105 8.04531L14.4437 7.60586Z" fill="#FFDA44"/>
<path id="Vector_6" d="M11.6946 5.03945L11.6243 5.97812L12.4997 6.3332L11.5821 6.5582L11.5153 7.50039L11.0196 6.69883L10.1021 6.92383L10.7103 6.20312L10.211 5.40508L11.0864 5.76015L11.6946 5.03945Z" fill="#FFDA44"/>
</g>
</g>
</g>
</svg>
