<svg width="20" height="20" viewBox="0 0 20 20" fill="none" xmlns="http://www.w3.org/2000/svg">
<g id="&#233;&#166;&#150;&#233;&#161;&#181;-&#231;&#189;&#174;&#231;&#129;&#176;">
<g id="Group 1">
<path id="Vector" d="M9.40756 9.40756H3.26028C2.01396 9.40756 1 8.39362 1 7.14728V3.26028C1 2.01396 2.01394 1 3.26028 1H7.14728C8.39359 1 9.40756 2.01394 9.40756 3.26028V9.40756ZM3.26028 1.82191C2.46718 1.82191 1.82193 2.46716 1.82193 3.26026V7.14728C1.82193 7.94037 2.46718 8.58563 3.26028 8.58563H8.58563V3.26028C8.58563 2.46718 7.94037 1.82193 7.14728 1.82193H3.26028V1.82191Z" fill="white"/>
<path id="Vector_2" d="M16.7397 9.40756H10.5523V3.26028C10.5523 2.01396 11.5663 1 12.8126 1H16.7397C17.986 1 19 2.01394 19 3.26028V7.1473C19 8.39362 17.986 9.40756 16.7397 9.40756ZM11.3742 8.58565H16.7397C17.5328 8.58565 18.1781 7.9404 18.1781 7.1473V3.26028C18.1781 2.46718 17.5328 1.82193 16.7397 1.82193H12.8126C12.0194 1.82193 11.3742 2.46718 11.3742 3.26028V8.58565Z" fill="white"/>
<path id="Vector_3" d="M7.1473 19H3.26028C2.01396 19 1 17.9861 1 16.7397V12.8126C1 11.5662 2.01394 10.5523 3.26028 10.5523H9.40756V16.7397C9.40756 17.986 8.39362 19 7.1473 19ZM3.26028 11.3742C2.46718 11.3742 1.82193 12.0194 1.82193 12.8125V16.7397C1.82193 17.5328 2.46718 18.1781 3.26028 18.1781H7.14728C7.94037 18.1781 8.58563 17.5328 8.58563 16.7397V11.3742H3.26028Z" fill="white"/>
<path id="Vector_4" d="M16.7398 19H12.8126C11.5663 19 10.5523 17.9861 10.5523 16.7397V10.5523H16.7398C17.9861 10.5523 19 11.5662 19 12.8126V16.7397C19 17.986 17.9861 19 16.7398 19ZM11.3742 11.3742V16.7397C11.3742 17.5328 12.0195 18.1781 12.8126 18.1781H16.7398C17.5328 18.1781 18.1781 17.5328 18.1781 16.7397V12.8126C18.1781 12.0195 17.5328 11.3742 16.7398 11.3742L11.3742 11.3742Z" fill="white"/>
</g>
</g>
</svg>
