<svg width="20" height="20" viewBox="0 0 20 20" fill="none" xmlns="http://www.w3.org/2000/svg">
<g id="&#233;&#166;&#150;&#233;&#161;&#181;-&#231;&#189;&#174;&#231;&#129;&#176;">
<path id="Vector" d="M10.0002 1C5.0372 1 1 5.03754 1 10C1 14.9625 5.03722 19 10.0002 19C14.9628 19 19 14.9625 19 10C19 5.03754 14.9628 1 10.0002 1ZM10.0002 17.9308C5.62695 17.9308 2.0693 14.3728 2.0693 10C2.0693 5.62728 5.62695 2.06929 10.0002 2.06929C14.3735 2.06929 17.9311 5.62728 17.9311 10C17.9311 14.3727 14.3734 17.9308 10.0002 17.9308ZM7.6757 12.9088C8.67803 12.9088 9.4936 12.0932 9.4936 11.0905V7.32373C9.4936 6.32098 8.67801 5.50544 7.6757 5.50544C6.67295 5.50544 5.85735 6.321 5.85735 7.32373V11.0905C5.85735 12.0932 6.67295 12.9088 7.6757 12.9088ZM6.92623 7.32373C6.92623 6.91034 7.26228 6.57469 7.6757 6.57469C8.08828 6.57469 8.42432 6.91034 8.42432 7.32373V11.0905C8.42432 11.5039 8.08828 11.8395 7.6757 11.8395C7.26228 11.8395 6.92623 11.5039 6.92623 11.0905V7.32373ZM12.3247 5.50544C11.3224 5.50544 10.5064 6.321 10.5064 7.32373V10.2021V10.8979V11.0905C10.5064 12.0932 11.3224 12.9088 12.3247 12.9088C13.3275 12.9088 14.143 12.0932 14.143 11.0905V10.2021C14.143 9.19938 13.3274 8.38382 12.3247 8.38382C12.0573 8.38382 11.8048 8.44537 11.5761 8.54974V7.32368C11.5761 6.91029 11.9121 6.57465 12.3247 6.57465C12.7381 6.57465 13.0742 6.91029 13.0742 7.32368V7.85355C13.0742 8.14882 13.3129 8.38839 13.6086 8.38839C13.9039 8.38839 14.143 8.14882 14.143 7.85355V7.32368C14.143 6.32098 13.3274 5.50544 12.3247 5.50544ZM12.3247 9.45311C12.7381 9.45311 13.0742 9.78915 13.0742 10.2021V11.0905C13.0742 11.5039 12.7381 11.8395 12.3247 11.8395C11.9121 11.8395 11.5761 11.5039 11.5761 11.0905V10.8979V10.2021C11.5761 9.78917 11.9121 9.45311 12.3247 9.45311ZM13.4942 13.7818H6.50617C6.21087 13.7818 5.97131 14.0209 5.97131 14.3162C5.97131 14.6115 6.21087 14.8506 6.50617 14.8506H13.4942C13.7895 14.8506 14.0291 14.6115 14.0291 14.3162C14.0291 14.0209 13.7895 13.7818 13.4942 13.7818Z" fill="#0E3A66"/>
</g>
</svg>
