<svg width="20" height="20" viewBox="0 0 20 20" fill="none" xmlns="http://www.w3.org/2000/svg">
<g id="&#233;&#166;&#150;&#233;&#161;&#181;-&#231;&#189;&#174;&#231;&#129;&#176;">
<g id="Vector">
<path d="M10 1C7.61305 1 5.32387 1.94821 3.63604 3.63604C1.94821 5.32387 1 7.61305 1 10C1 12.3869 1.94821 14.6761 3.63604 16.364C5.32387 18.0518 7.61305 19 10 19C10.2029 19 10.3975 18.9194 10.5409 18.7759C10.6844 18.6325 10.765 18.4379 10.765 18.235C10.765 18.0321 10.6844 17.8375 10.5409 17.6941C10.3975 17.5506 10.2029 17.47 10 17.47C8.52257 17.47 7.07833 17.0319 5.84989 16.2111C4.62146 15.3903 3.66401 14.2236 3.09862 12.8586C2.53323 11.4937 2.3853 9.99171 2.67353 8.54268C2.96177 7.09364 3.67321 5.76261 4.71791 4.71791C5.76261 3.67321 7.09364 2.96177 8.54268 2.67353C9.99171 2.3853 11.4937 2.53323 12.8586 3.09862C14.2236 3.66401 15.3903 4.62146 16.2111 5.84989C17.0319 7.07833 17.47 8.52257 17.47 10C17.47 10.2029 17.5506 10.3975 17.6941 10.5409C17.8375 10.6844 18.0321 10.765 18.235 10.765C18.4379 10.765 18.6325 10.6844 18.7759 10.5409C18.9194 10.3975 19 10.2029 19 10C19 7.61305 18.0518 5.32387 16.364 3.63604C14.6761 1.94821 12.3869 1 10 1Z" fill="white"/>
<path d="M12.8238 8.965L10 6.1975C9.92749 6.12125 9.84024 6.06055 9.74354 6.01906C9.64684 5.97758 9.54272 5.95619 9.4375 5.95619C9.33228 5.95619 9.22816 5.97758 9.13146 6.01906C9.03476 6.06055 8.94751 6.12125 8.875 6.1975L6.1975 8.965C6.12125 9.03751 6.06055 9.12476 6.01906 9.22146C5.97758 9.31816 5.95619 9.42228 5.95619 9.5275C5.95619 9.63272 5.97758 9.73684 6.01906 9.83354C6.06055 9.93024 6.12125 10.0175 6.1975 10.09L8.965 12.8688C9.11119 13.0062 9.30434 13.0827 9.505 13.0825C9.60475 13.085 9.70399 13.0673 9.79677 13.0306C9.88955 12.9939 9.97397 12.9388 10.045 12.8688L12.8238 10C12.951 9.85768 13.0214 9.67344 13.0214 9.4825C13.0214 9.29156 12.951 9.10732 12.8238 8.965ZM9.505 11.215L7.8175 9.5275L9.505 7.84L11.1925 9.5275L9.505 11.215ZM17.6163 13.735H17.335C17.3405 13.709 17.3405 13.6822 17.335 13.6563C17.335 13.0774 17.1051 12.5223 16.6958 12.113C16.2865 11.7037 15.7313 11.4738 15.1525 11.4738C14.5737 11.4738 14.0185 11.7037 13.6092 12.113C13.1999 12.5223 12.97 13.0774 12.97 13.6563C12.9645 13.6822 12.9645 13.709 12.97 13.735H12.6888C12.4868 13.7379 12.2939 13.8194 12.151 13.9623C12.0082 14.1051 11.9267 14.298 11.9237 14.5V17.9875C11.9237 18.088 11.9435 18.1874 11.982 18.2803C12.0204 18.3731 12.0768 18.4574 12.1478 18.5284C12.2189 18.5995 12.3032 18.6558 12.396 18.6943C12.4888 18.7327 12.5883 18.7525 12.6888 18.7525H17.5938C17.6942 18.7525 17.7937 18.7327 17.8865 18.6943C17.9793 18.6558 18.0637 18.5995 18.1347 18.5284C18.2057 18.4574 18.2621 18.3731 18.3005 18.2803C18.339 18.1874 18.3588 18.088 18.3588 17.9875V14.5C18.3561 14.3018 18.2777 14.1121 18.1396 13.9699C18.0015 13.8276 17.8143 13.7436 17.6163 13.735ZM14.5 13.6563C14.5 13.5706 14.5168 13.4857 14.5496 13.4065C14.5824 13.3273 14.6305 13.2554 14.6911 13.1948C14.7517 13.1342 14.8236 13.0861 14.9028 13.0533C14.9819 13.0205 15.0668 13.0036 15.1525 13.0036C15.2382 13.0036 15.3231 13.0205 15.4022 13.0533C15.4814 13.0861 15.5533 13.1342 15.6139 13.1948C15.6745 13.2554 15.7226 13.3273 15.7554 13.4065C15.7882 13.4857 15.805 13.5706 15.805 13.6563V13.735H14.5V13.6563ZM16.84 17.2225H13.465V15.265H16.84V17.2225Z" fill="white"/>
</g>
</g>
</svg>
