<svg width="20" height="20" viewBox="0 0 20 20" fill="none" xmlns="http://www.w3.org/2000/svg">
<g id="&#233;&#166;&#150;&#233;&#161;&#181;-&#231;&#189;&#174;&#231;&#129;&#176;">
<g id="Group 2">
<path id="Vector" d="M10 1C5.02878 1 1 5.02878 1 10C1 14.9712 5.02878 19 10 19C14.9712 19 19 14.9712 19 10C19 5.02878 14.9712 1 10 1ZM15.4604 15.4604C14.7482 16.1727 13.9209 16.7266 13.0072 17.1151C12.0576 17.518 11.0432 17.7194 10 17.7194C8.95683 17.7194 7.94245 17.518 6.99281 17.1151C6.07194 16.7266 5.2446 16.1655 4.53957 15.4604C3.82734 14.7482 3.27338 13.9209 2.88489 13.0072C2.48201 12.0576 2.28058 11.0432 2.28058 10C2.28058 8.95683 2.48201 7.94245 2.88489 6.99281C3.27338 6.07194 3.83453 5.2446 4.53957 4.53957C5.2518 3.82734 6.07914 3.27338 6.99281 2.88489C7.94245 2.48201 8.95683 2.28058 10 2.28058C11.0432 2.28058 12.0576 2.48201 13.0072 2.88489C13.9281 3.27338 14.7554 3.83453 15.4604 4.53957C16.1727 5.2518 16.7266 6.07914 17.1151 6.99281C17.518 7.94245 17.7194 8.95683 17.7194 10C17.7194 11.0432 17.518 12.0576 17.1151 13.0072C16.7266 13.9281 16.1727 14.7554 15.4604 15.4604Z" fill="#0E3A66"/>
<path id="Vector_2" d="M11.3813 8.58993C11.7914 8.40288 12.1007 8.14389 12.3022 7.81295C12.5036 7.48921 12.6043 7.09352 12.6043 6.64029C12.6043 5.92806 12.3669 5.33813 11.8849 4.88489C11.4101 4.42446 10.7842 4.20144 10.0288 4.20144C9.27338 4.20144 8.65467 4.43165 8.16546 4.88489C7.69064 5.33813 7.44604 5.92806 7.44604 6.64029C7.44604 7.10072 7.54676 7.48921 7.7482 7.81295C7.94963 8.13669 8.25899 8.39568 8.66186 8.58993C8.1223 8.84173 7.71942 9.17986 7.45323 9.60432C7.18704 10.0288 7.05035 10.554 7.05035 11.1655C7.05035 11.9928 7.33093 12.6691 7.88489 13.2014C8.43884 13.7338 9.15827 14 10.0288 14C10.8993 14 11.6115 13.7338 12.1655 13.2014C12.7194 12.6691 12.9928 11.9928 12.9928 11.1655C12.9928 10.554 12.8561 10.036 12.5899 9.61151C12.3309 9.18705 11.9281 8.84173 11.3813 8.58993ZM8.60431 6.64029C8.60431 6.23022 8.741 5.89209 9.01438 5.61871C9.28776 5.34532 9.62589 5.21583 10.036 5.21583C10.446 5.21583 10.7842 5.35252 11.0575 5.61871C11.3237 5.89209 11.4604 6.23022 11.4604 6.64029C11.4604 7.07194 11.3309 7.42446 11.0647 7.69065C10.8057 7.95683 10.4604 8.09353 10.036 8.09353C9.61151 8.09353 9.26618 7.95683 9.00719 7.69065C8.73381 7.41727 8.60431 7.07194 8.60431 6.64029ZM11.3093 12.4173C10.9784 12.7554 10.554 12.9281 10.036 12.9281C9.51798 12.9281 9.09352 12.7554 8.76258 12.4173C8.43165 12.0719 8.25899 11.6331 8.25899 11.1007C8.25899 10.5396 8.42445 10.0863 8.76258 9.73381C9.09352 9.38129 9.52517 9.20144 10.036 9.20144C10.554 9.20144 10.9784 9.3741 11.3093 9.72662C11.6403 10.0791 11.8057 10.5324 11.8057 11.1007C11.7986 11.6403 11.6403 12.0791 11.3093 12.4173Z" fill="#0E3A66"/>
</g>
</g>
</svg>
