<svg width="20" height="20" viewBox="0 0 20 20" fill="none" xmlns="http://www.w3.org/2000/svg">
<g id="&#233;&#166;&#150;&#233;&#161;&#181;-&#231;&#189;&#174;&#231;&#129;&#176;">
<path id="Vector" d="M9.36106 5.14003C8.38007 5.14003 7.58807 5.89603 7.58807 6.82302V9.415C7.44407 9.37 7.39907 9.352 7.23707 9.352C6.43607 9.352 5.77909 9.964 5.77909 10.729V11.917C5.77909 12.628 5.92309 13.339 6.22909 13.987C6.42707 14.41 6.66107 14.797 7.01207 15.139C7.84907 15.949 8.95606 16.39 10.1261 16.39H10.6301C11.8001 16.39 12.925 15.949 13.762 15.139C14.167 14.743 14.509 14.284 14.725 13.78C14.959 13.249 15.085 12.691 15.085 12.115V10.54C15.013 9.847 14.32 9.262 13.555 9.262H13.537C13.186 9.415 13.015 9.118 12.862 8.884C12.601 8.46102 12.097 8.18202 11.557 8.18202C11.404 8.18202 11.287 8.20902 11.152 8.24502V6.82302C11.152 5.89603 10.3511 5.14003 9.36106 5.14003ZM11.6021 9.181C11.8451 9.181 12.0521 9.352 12.0521 9.55V10.963C12.0521 11.242 12.2771 11.467 12.5561 11.467C12.8351 11.467 13.0601 11.242 13.0601 10.963V10.639C13.0781 10.45 13.3121 10.261 13.5641 10.261C13.8161 10.261 14.077 10.495 14.068 10.693V12.205C14.041 13.033 13.6541 13.807 13.0421 14.392C12.3941 15.013 11.5391 15.364 10.6301 15.364H10.1261C9.21707 15.364 8.36209 15.022 7.71409 14.392C7.07509 13.771 6.78709 12.952 6.78709 12.079V10.702C6.78709 10.504 6.99409 10.333 7.23709 10.333C7.48009 10.333 7.57909 10.504 7.58809 10.702V11.341C7.58809 11.62 7.81309 11.845 8.09209 11.845C8.37109 11.845 8.59609 11.62 8.59609 11.341V6.82302C8.59609 6.65202 8.66809 6.49002 8.81207 6.36402C8.96507 6.22901 9.14507 6.14803 9.36107 6.14803C9.57707 6.14803 9.77507 6.22003 9.92807 6.36402C10.0631 6.49002 10.1441 6.65202 10.1441 6.82302V10.324C10.1441 10.603 10.3691 10.828 10.6481 10.828C10.9271 10.828 11.1521 10.603 11.1521 10.324V9.55C11.1521 9.352 11.359 9.181 11.6021 9.181ZM12.9611 6.53502C12.9611 6.81402 12.7361 7.03902 12.4571 7.03902C12.1781 7.03902 11.9531 6.81402 11.9531 6.53502C11.9531 5.25703 10.6751 4.21303 9.37007 4.21303C7.94809 4.21303 6.78709 5.25703 6.78709 6.53502C6.78709 6.81402 6.56209 7.03902 6.28309 7.03902C6.00411 7.03902 5.77911 6.81402 5.77911 6.53502C5.77911 5.63501 6.15711 4.79803 6.84109 4.16803C7.51609 3.54705 8.41609 3.20505 9.36109 3.20505C10.3151 3.20505 11.2061 3.54705 11.8811 4.16803C12.5831 4.79803 12.9611 5.63503 12.9611 6.53502ZM19.018 10C19.018 12.403 18.082 14.662 16.372 16.363C14.68 18.055 12.385 19.0089 9.99106 18.9999C8.34407 18.9999 6.73307 18.559 5.32909 17.704C5.04109 17.524 4.95109 17.146 5.13109 16.849C5.31109 16.561 5.68909 16.462 5.97709 16.633C7.19209 17.362 8.57807 17.749 9.99106 17.749C14.275 17.749 17.758 14.275 17.758 10C17.758 5.72503 14.275 2.25105 9.99106 2.25105C5.71609 2.26005 2.2421 5.72501 2.23312 10C2.23312 11.503 2.6651 12.97 3.4931 14.23C3.6191 14.419 3.6281 14.653 3.5291 14.851C3.4301 15.049 3.2321 15.184 3.0071 15.193C2.7821 15.202 2.5661 15.094 2.4491 14.914C1.4861 13.447 0.982119 11.755 0.982119 10C0.973119 7.615 1.92712 5.32003 3.6281 3.63705C5.31109 1.94505 7.60607 0.991063 10.0001 1.00006C12.394 0.991063 14.689 1.94506 16.381 3.63705C18.082 5.33803 19.018 7.59702 19.018 10Z" fill="white"/>
</g>
</svg>
