<svg width="20" height="20" viewBox="0 0 20 20" fill="none" xmlns="http://www.w3.org/2000/svg">
<g id="&#233;&#166;&#150;&#233;&#161;&#181;-&#231;&#189;&#174;&#231;&#129;&#176;">
<g id="Vector">
<path d="M9.44198 18.0066C9.40873 18.0066 6.35847 18.0523 5.04528 18.0066C4.91884 18.0138 4.79221 17.996 4.67268 17.9542C4.55315 17.9123 4.44309 17.8472 4.34883 17.7626C4.25458 17.678 4.178 17.5756 4.1235 17.4613C4.069 17.3469 4.03767 17.223 4.0313 17.0965V15.9163C4.03128 15.8149 3.99099 15.7177 3.91929 15.646C3.84759 15.5743 3.75036 15.534 3.64898 15.534C3.54759 15.534 3.45036 15.5743 3.37866 15.646C3.30697 15.7177 3.26668 15.8149 3.26665 15.9163V17.1089C3.28186 17.5609 3.47438 17.9887 3.80257 18.2997C4.13076 18.6108 4.56824 18.7802 5.02035 18.7712H9.45029C9.55207 18.769 9.64887 18.7268 9.71968 18.6536C9.79048 18.5805 9.82957 18.4824 9.82846 18.3806C9.81975 18.2818 9.77601 18.1894 9.70513 18.12C9.63426 18.0507 9.54092 18.009 9.44198 18.0024V18.0066ZM3.64482 13.2442C3.74622 13.2442 3.84346 13.2039 3.91516 13.1322C3.98686 13.0605 4.02714 12.9632 4.02714 12.8618V8.49008C4.02714 8.38868 3.98686 8.29144 3.91516 8.21974C3.84346 8.14804 3.74622 8.10776 3.64482 8.10776H1.30102C1.86204 7.65895 6.6743 4.33441 9.87001 2.11529L9.92404 2.06957C9.92404 2.06957 10.1734 1.85763 10.6014 2.11113L12.7748 3.68197C12.8543 3.72584 12.9469 3.73996 13.0359 3.72182C13.1249 3.70367 13.2045 3.65444 13.2605 3.58295C13.3165 3.51145 13.3452 3.42235 13.3415 3.33161C13.3378 3.24087 13.3019 3.15441 13.2403 3.08771L11.0211 1.47116C10.7878 1.29702 10.5032 1.20539 10.212 1.21065C9.92091 1.21592 9.6398 1.31779 9.41289 1.50025C8.47786 2.14853 1.17635 7.18936 0.752475 7.56752C0.644266 7.6442 0.560452 7.75044 0.511071 7.87352C0.46169 7.99661 0.448835 8.13132 0.474045 8.26152C0.561314 8.67709 1.03506 8.82669 1.13064 8.85578C1.16638 8.86207 1.20295 8.86207 1.23869 8.85578H3.2625V12.8452C3.2625 12.9466 3.30278 13.0439 3.37448 13.1156C3.44618 13.1873 3.54342 13.2275 3.64482 13.2275V13.2442ZM19.3657 7.53843C19.4426 7.63388 19.4965 7.74576 19.5231 7.8654C19.5498 7.98503 19.5486 8.1092 19.5195 8.22827C19.4734 8.37329 19.3925 8.5048 19.2838 8.6113C19.1752 8.71779 19.042 8.79603 18.8961 8.83916C18.8621 8.85512 18.8255 8.86497 18.7881 8.86825L16.9139 9.01785L16.997 17.0009C16.9977 17.4064 16.8632 17.8006 16.6149 18.1212C16.3665 18.4418 16.0184 18.6705 15.6256 18.7712C15.5913 18.7775 15.5561 18.7775 15.5217 18.7712H12.833C12.7316 18.7712 12.6344 18.7309 12.5627 18.6592C12.491 18.5875 12.4507 18.4903 12.4507 18.3889C12.4507 18.2875 12.491 18.1902 12.5627 18.1185C12.6344 18.0468 12.7316 18.0066 12.833 18.0066H15.4552C15.6787 17.9484 15.877 17.8185 16.0196 17.6369C16.1622 17.4552 16.2413 17.2318 16.2448 17.0009L16.1534 8.65215C16.154 8.55543 16.1904 8.46237 16.2557 8.39097C16.3209 8.31958 16.4103 8.27493 16.5066 8.26567L18.6759 8.09529C18.7183 8.07884 18.7566 8.05331 18.7881 8.02049L15.2724 5.47306C15.1978 5.41193 15.149 5.32484 15.1359 5.22928C15.1228 5.13371 15.1463 5.03673 15.2017 4.95776C15.2622 4.87746 15.3515 4.82386 15.4508 4.80835C15.5502 4.79283 15.6516 4.81661 15.7337 4.87465L19.32 7.47194C19.3381 7.49197 19.3535 7.51433 19.3657 7.53843Z" fill="#0E3A66"/>
<path d="M6.77819 18.9998H5.01204C4.50735 19.0077 4.01976 18.8169 3.6544 18.4687C3.28904 18.1204 3.07516 17.6425 3.05887 17.138V15.9163C3.05886 15.8388 3.07411 15.762 3.10376 15.6904C3.13341 15.6188 3.17688 15.5537 3.23167 15.4989C3.28647 15.4441 3.35153 15.4006 3.42313 15.371C3.49473 15.3413 3.57147 15.3261 3.64898 15.3261C3.72648 15.3261 3.80322 15.3413 3.87482 15.371C3.94642 15.4006 4.01148 15.4441 4.06628 15.4989C4.12108 15.5537 4.16454 15.6188 4.19419 15.6904C4.22384 15.762 4.23909 15.8388 4.23908 15.9163V17.0965C4.24406 17.1984 4.26997 17.2982 4.3152 17.3897C4.36042 17.4812 4.42399 17.5625 4.50195 17.6283C4.57991 17.6942 4.67059 17.7433 4.76835 17.7727C4.86612 17.802 4.96887 17.8109 5.07021 17.7988C6.159 17.8362 8.46124 17.7988 9.39627 17.7988H9.4586C9.61413 17.8009 9.76283 17.863 9.87359 17.9722C9.98435 18.0814 10.0486 18.2292 10.0529 18.3847C10.0516 18.5392 9.99227 18.6876 9.88663 18.8003C9.77658 18.9116 9.62754 18.9757 9.47107 18.979H9.27575C8.83525 18.9873 7.79218 18.9998 6.77819 18.9998ZM3.64898 15.7417C3.60269 15.7417 3.55829 15.7601 3.52556 15.7928C3.49283 15.8256 3.47444 15.87 3.47444 15.9163V17.1089C3.49067 17.5061 3.66219 17.8811 3.95208 18.1531C4.24198 18.4251 4.62707 18.5725 5.0245 18.5634H9.46691C9.48958 18.5629 9.51192 18.5578 9.53262 18.5486C9.55331 18.5393 9.57195 18.526 9.58743 18.5094C9.60356 18.4929 9.61627 18.4734 9.62483 18.452C9.63339 18.4307 9.63762 18.4078 9.63729 18.3847C9.63426 18.3387 9.61434 18.2955 9.58136 18.2632C9.54838 18.231 9.50466 18.2121 9.4586 18.2102H9.39211C8.44877 18.2102 6.14238 18.2434 5.04112 18.2102C4.73381 18.2249 4.43317 18.1173 4.20499 17.9109C3.9768 17.7045 3.83964 17.4162 3.82351 17.1089V15.9163C3.82351 15.87 3.80513 15.8256 3.77239 15.7928C3.73966 15.7601 3.69527 15.7417 3.64898 15.7417ZM15.5093 18.9956H12.833C12.6765 18.9956 12.5264 18.9334 12.4157 18.8228C12.3051 18.7121 12.2429 18.562 12.2429 18.4055C12.2429 18.249 12.3051 18.0989 12.4157 17.9882C12.5264 17.8776 12.6765 17.8154 12.833 17.8154H15.4178C15.5944 17.7698 15.7511 17.6674 15.8638 17.524C15.9764 17.3805 16.0388 17.204 16.0412 17.0217L15.9498 8.66877C15.9491 8.52009 16.0043 8.37659 16.1043 8.26657C16.2043 8.15656 16.3419 8.08803 16.49 8.07451L18.2936 7.92907L14.969 5.52709V5.48553C14.9059 5.38673 14.8742 5.27118 14.8779 5.15402C14.8816 5.03686 14.9206 4.92355 14.9898 4.82894C15.0356 4.76553 15.0934 4.71179 15.16 4.67077C15.2265 4.62976 15.3005 4.60229 15.3778 4.58994C15.455 4.57758 15.5339 4.58059 15.6099 4.59878C15.686 4.61697 15.7577 4.65 15.8209 4.69596L19.4114 7.29325C19.4542 7.32631 19.4932 7.36393 19.5278 7.40545C19.6234 7.5271 19.6902 7.66879 19.7233 7.81991C19.7564 7.97103 19.7549 8.12768 19.7189 8.27814C19.6647 8.45481 19.5682 8.61561 19.4379 8.74666C19.3076 8.87771 19.1473 8.97506 18.9709 9.03032C18.914 9.05307 18.8535 9.06573 18.7922 9.06772L17.13 9.20485L17.2131 16.9926C17.2142 17.4467 17.0629 17.8881 16.7834 18.246C16.5038 18.6039 16.1122 18.8576 15.6713 18.9665C15.6193 18.9853 15.5645 18.9951 15.5093 18.9956ZM12.833 18.231C12.7867 18.231 12.7423 18.2494 12.7096 18.2821C12.6769 18.3148 12.6585 18.3592 12.6585 18.4055C12.6585 18.4518 12.6769 18.4962 12.7096 18.5289C12.7423 18.5617 12.7867 18.58 12.833 18.58H15.5093C15.5243 18.5837 15.54 18.5837 15.555 18.58C15.9082 18.4978 16.2234 18.2988 16.4497 18.0153C16.6759 17.7317 16.7999 17.3802 16.8017 17.0175L16.7144 8.83085L18.7922 8.66877H18.8463C18.96 8.63398 19.064 8.57299 19.1499 8.49072C19.2357 8.40844 19.3011 8.30716 19.3408 8.19503C19.3632 8.10185 19.3632 8.00469 19.3408 7.91151C19.3184 7.81833 19.2742 7.73178 19.212 7.65895H19.1829L15.5924 5.03672C15.5541 5.01045 15.5071 5.0001 15.4614 5.00785C15.4156 5.01561 15.3747 5.04086 15.3472 5.07828C15.3268 5.10754 15.3159 5.14235 15.3159 5.17801C15.3159 5.21368 15.3268 5.24848 15.3472 5.27775H15.3763L15.4386 5.35671L19.0831 7.99971L18.946 8.17009C18.8935 8.2258 18.8297 8.26971 18.759 8.29892L18.6842 8.3197L16.5232 8.49008C16.4791 8.49324 16.4379 8.51301 16.4078 8.54541C16.3777 8.5778 16.3611 8.62041 16.3612 8.66462L16.4567 17.0134C16.4531 17.289 16.3599 17.5561 16.1912 17.7742C16.0226 17.9923 15.7876 18.1497 15.5217 18.2227H15.4594L12.833 18.231ZM3.64482 13.4519C3.48865 13.4509 3.33919 13.3883 3.22876 13.2779C3.11832 13.1675 3.0558 13.018 3.05472 12.8618V9.08018H1.23869C1.18238 9.07974 1.12642 9.07134 1.07246 9.05525C0.886444 9.00853 0.715307 8.91541 0.575046 8.7846C0.434784 8.65378 0.329976 8.48954 0.270417 8.30723C0.237241 8.14133 0.251628 7.96942 0.31192 7.81134C0.372212 7.65326 0.475953 7.51544 0.611182 7.41376C0.985192 7.08131 6.16316 3.50328 9.22173 1.38389L9.29653 1.32986C9.55456 1.12293 9.87374 1.00708 10.2044 1.00031C10.5351 0.99355 10.8588 1.09626 11.125 1.29246L13.4439 2.98798C13.5256 3.07219 13.5793 3.17959 13.5976 3.29549C13.6122 3.38255 13.6069 3.47178 13.5822 3.55651C13.5575 3.64124 13.5139 3.71929 13.4547 3.78482C13.3956 3.85035 13.3224 3.90167 13.2407 3.93496C13.1589 3.96824 13.0707 3.98262 12.9826 3.97702V4.08923L12.7166 3.91884L12.6626 3.8856L10.4809 2.27736C10.1983 2.11529 10.0653 2.21918 10.0653 2.22333L9.99884 2.28151C6.81144 4.4757 3.2625 6.94002 1.91191 7.89998H3.64482C3.80099 7.90106 3.95045 7.96358 4.06088 8.07402C4.17132 8.18445 4.23384 8.33391 4.23493 8.49008V12.8618C4.23384 13.018 4.17132 13.1675 4.06088 13.2779C3.95045 13.3883 3.80099 13.4509 3.64482 13.4519ZM10.1858 1.42544C9.95214 1.42437 9.72606 1.50859 9.55002 1.66232L9.45444 1.72881C4.27233 5.30684 1.14726 7.49272 0.889612 7.72128C0.809877 7.77465 0.746625 7.84921 0.706978 7.93658C0.667331 8.02395 0.652864 8.12066 0.665206 8.21581C0.735852 8.52333 1.15973 8.65215 1.18051 8.65631C1.19696 8.65967 1.21392 8.65967 1.23038 8.65631H3.47028V12.8535C3.47028 12.8765 3.4748 12.8991 3.48357 12.9203C3.49234 12.9415 3.5052 12.9607 3.5214 12.9769C3.53761 12.9932 3.55685 13.006 3.57803 13.0148C3.5992 13.0236 3.6219 13.0281 3.64482 13.0281C3.66774 13.0281 3.69044 13.0236 3.71161 13.0148C3.73279 13.006 3.75203 12.9932 3.76824 12.9769C3.78444 12.9607 3.7973 12.9415 3.80607 12.9203C3.81484 12.8991 3.81936 12.8765 3.81936 12.8535V8.49008C3.81936 8.44379 3.80097 8.3994 3.76824 8.36666C3.73551 8.33393 3.69111 8.31554 3.64482 8.31554H1.22622L0.993504 8.07451L1.1722 7.93738C1.77061 7.46363 7.04416 3.8108 9.7495 1.9449C9.88444 1.83306 10.0542 1.77185 10.2295 1.77185C10.4047 1.77185 10.5745 1.83306 10.7095 1.9449L12.9327 3.54483C12.9693 3.56438 13.0114 3.57092 13.0522 3.56336C13.093 3.55581 13.13 3.53463 13.1571 3.50328C13.1833 3.4658 13.1938 3.41955 13.1862 3.37445C13.1828 3.34752 13.1728 3.32183 13.1571 3.29965H13.0325V3.18329L10.8965 1.64154C10.6834 1.50667 10.4379 1.432 10.1858 1.42544Z" fill="#0E3A66"/>
<path d="M6.66184 13.0613C6.73422 13.1331 6.83206 13.1734 6.93403 13.1734C7.036 13.1734 7.13384 13.1331 7.20623 13.0613L11.4699 8.65631C11.523 8.60279 11.5589 8.53464 11.573 8.4606C11.587 8.38655 11.5787 8.30999 11.5489 8.24074C11.519 8.17182 11.4697 8.1131 11.4069 8.07177C11.3442 8.03044 11.2708 8.00828 11.1957 8.00802H8.2867C8.1853 8.00802 8.08806 8.0483 8.01636 8.12C7.94466 8.1917 7.90438 8.28895 7.90438 8.39034C7.90438 8.49174 7.94466 8.58899 8.01636 8.66069C8.08806 8.73239 8.1853 8.77267 8.2867 8.77267H10.2939L6.6743 12.5128C6.60374 12.585 6.56423 12.6819 6.56423 12.7829C6.56423 12.8838 6.60374 12.9808 6.6743 13.053L6.66184 13.0613ZM11.9603 14.5989C12.0136 14.5933 12.0674 14.599 12.1184 14.6156C12.1693 14.6322 12.2162 14.6592 12.256 14.6951C12.2958 14.7309 12.3276 14.7748 12.3494 14.8237C12.3712 14.8726 12.3824 14.9256 12.3824 14.9792C12.3824 15.0327 12.3712 15.0857 12.3494 15.1346C12.3276 15.1836 12.2958 15.2274 12.256 15.2632C12.2162 15.2991 12.1693 15.3262 12.1184 15.3427C12.0674 15.3593 12.0136 15.365 11.9603 15.3594H9.05134C8.97836 15.3579 8.90732 15.3356 8.84662 15.295C8.78593 15.2545 8.73811 15.1974 8.70883 15.1305C8.67955 15.0636 8.67002 14.9898 8.68138 14.9177C8.69273 14.8456 8.7245 14.7782 8.77291 14.7236L13.02 10.3186C13.0544 10.2803 13.0961 10.2494 13.1427 10.2277C13.1893 10.206 13.2398 10.1939 13.2912 10.1921C13.3426 10.1903 13.3938 10.199 13.4418 10.2175C13.4898 10.236 13.5335 10.2639 13.5705 10.2997C13.6074 10.3355 13.6367 10.3784 13.6566 10.4258C13.6766 10.4732 13.6868 10.5241 13.6866 10.5755C13.6864 10.6269 13.6759 10.6778 13.6556 10.725C13.6353 10.7723 13.6057 10.815 13.5686 10.8505L9.95312 14.5906L11.9603 14.5989Z" fill="#0E3A66"/>
<path d="M11.9603 15.5547H9.05134C8.93595 15.5544 8.82321 15.52 8.72729 15.4558C8.63136 15.3917 8.55651 15.3007 8.51213 15.1941C8.46774 15.0876 8.4558 14.9704 8.4778 14.8571C8.49979 14.7438 8.55475 14.6395 8.63578 14.5574L12.8704 10.1731C12.9815 10.0645 13.1306 10.0037 13.286 10.0037C13.4413 10.0037 13.5905 10.0645 13.7015 10.1731C13.8112 10.2837 13.8727 10.433 13.8727 10.5887C13.8727 10.7444 13.8112 10.8937 13.7015 11.0043L10.4269 14.3911H11.9437C12.0251 14.3843 12.107 14.3944 12.1842 14.4208C12.2615 14.4473 12.3324 14.4895 12.3926 14.5447C12.4527 14.6 12.5007 14.6672 12.5335 14.7419C12.5663 14.8167 12.5833 14.8975 12.5833 14.9792C12.5833 15.0608 12.5663 15.1416 12.5335 15.2164C12.5007 15.2911 12.4527 15.3583 12.3926 15.4136C12.3324 15.4688 12.2615 15.511 12.1842 15.5375C12.107 15.5639 12.0251 15.574 11.9437 15.5672L11.9603 15.5547ZM13.2943 10.4058C13.2472 10.4067 13.2024 10.4261 13.1696 10.4599L8.92252 14.8524C8.8981 14.8767 8.88163 14.9079 8.87528 14.9417C8.86893 14.9756 8.873 15.0106 8.88696 15.0421C8.90091 15.0736 8.92409 15.1002 8.95344 15.1182C8.98279 15.1363 9.01693 15.145 9.05134 15.1433H11.9603C11.9852 15.1472 12.0106 15.1456 12.0349 15.1387C12.0591 15.1319 12.0816 15.1198 12.1007 15.1034C12.1198 15.087 12.1352 15.0667 12.1457 15.0438C12.1562 15.0209 12.1617 14.996 12.1617 14.9708C12.1617 14.9457 12.1562 14.9208 12.1457 14.8979C12.1352 14.875 12.1198 14.8547 12.1007 14.8383C12.0816 14.8219 12.0591 14.8098 12.0349 14.803C12.0106 14.7961 11.9852 14.7945 11.9603 14.7984H9.46691L13.4231 10.7051C13.4391 10.6894 13.4518 10.6706 13.4604 10.6499C13.4689 10.6292 13.4732 10.6069 13.473 10.5845C13.4719 10.5386 13.4532 10.4948 13.4207 10.4623C13.3882 10.4298 13.3444 10.4111 13.2984 10.41L13.2943 10.4058ZM6.9278 13.3688C6.85092 13.3704 6.77452 13.3565 6.70313 13.3279C6.63174 13.2994 6.56682 13.2568 6.51223 13.2026C6.45643 13.1487 6.41205 13.0842 6.38174 13.0128C6.35143 12.9414 6.3358 12.8646 6.3358 12.787C6.3358 12.7095 6.35143 12.6327 6.38174 12.5613C6.41205 12.4899 6.45643 12.4253 6.51223 12.3715L9.7869 8.98461H8.26592C8.10942 8.98461 7.95932 8.92243 7.84866 8.81177C7.73799 8.7011 7.67582 8.55101 7.67582 8.3945C7.67582 8.23799 7.73799 8.0879 7.84866 7.97723C7.95932 7.86657 8.10942 7.8044 8.26592 7.8044H11.1749C11.2906 7.80452 11.4037 7.8384 11.5004 7.90188C11.5971 7.96536 11.6732 8.05569 11.7193 8.16178C11.7648 8.26841 11.7776 8.38614 11.7561 8.50005C11.7347 8.61397 11.6799 8.71897 11.5988 8.80176L7.35583 13.1901C7.29983 13.2467 7.23317 13.2917 7.1597 13.3223C7.08623 13.353 7.00741 13.3688 6.9278 13.3688ZM6.80728 12.9034C6.84113 12.9349 6.88568 12.9525 6.93195 12.9525C6.97822 12.9525 7.02278 12.9349 7.05662 12.9034L11.2996 8.51086C11.3237 8.48697 11.3402 8.4564 11.3469 8.42308C11.3535 8.38976 11.3501 8.3552 11.337 8.32385C11.3227 8.29287 11.2998 8.26663 11.2711 8.24822C11.2424 8.22981 11.209 8.22 11.1749 8.21996H8.26592C8.21963 8.21996 8.17524 8.23835 8.14251 8.27108C8.10977 8.30381 8.09138 8.34821 8.09138 8.3945C8.09138 8.44079 8.10977 8.48518 8.14251 8.51792C8.17524 8.55065 8.21963 8.56904 8.26592 8.56904H10.7593L6.80313 12.6457C6.787 12.6622 6.77428 12.6817 6.76573 12.7031C6.75717 12.7245 6.75293 12.7474 6.75326 12.7704C6.75638 12.8157 6.77553 12.8585 6.80728 12.8909V12.9034Z" fill="#0E3A66"/>
</g>
</g>
</svg>
