<svg width="20" height="20" viewBox="0 0 20 20" fill="none" xmlns="http://www.w3.org/2000/svg">
<g id="&#233;&#166;&#150;&#233;&#161;&#181;-&#231;&#189;&#174;&#231;&#129;&#176;">
<g id="Group 3">
<path id="Vector" d="M15.1884 17.641H13.4494C12.974 17.641 12.5669 17.3006 12.4724 16.8453H9.34657C9.25205 17.3006 8.84408 17.641 8.36955 17.641H6.62964C6.11172 17.641 5.67481 17.2369 5.6343 16.72L5.57643 15.9735C4.17891 15.1662 3.13053 13.8728 2.63479 12.3461L2.04549 12.3152C1.45909 12.2843 1 11.8002 1 11.2128V8.97234C1 8.40619 1.42437 7.93456 1.98762 7.87476L2.83443 7.78507C3.15174 7.03953 3.60794 6.35764 4.17602 5.77607C3.44977 4.77783 3.60505 3.96671 4.01013 3.54331C4.02845 3.52402 4.04774 3.50666 4.068 3.49026C4.96013 2.78137 6.28436 2.84213 7.89696 3.66676C8.10818 3.77478 8.36087 3.82783 8.62803 3.81915C8.69555 3.81722 8.76306 3.81625 8.83057 3.81625H12.4859C16.0776 3.81625 19 6.73861 19 10.3303C19 12.4473 17.9844 14.4091 16.2676 15.633L16.1837 16.719C16.1432 17.2369 15.7063 17.641 15.1884 17.641ZM13.597 16.4837H15.0418L15.1363 15.2675C15.1432 15.1788 15.1704 15.0929 15.2159 15.0164C15.2614 14.94 15.324 14.875 15.3987 14.8267C16.9302 13.8323 17.8436 12.1522 17.8436 10.3313C17.8436 7.37806 15.4411 4.97459 12.4869 4.97459H8.83154C8.7756 4.97459 8.72062 4.97555 8.66468 4.97748C8.2027 4.99195 7.75615 4.8955 7.37132 4.69875C6.71259 4.36215 5.52242 3.87991 4.83475 4.36215C4.78846 4.46534 4.83861 4.84535 5.38933 5.42596C5.49831 5.54073 5.55522 5.69601 5.5475 5.85419C5.53978 6.01236 5.46648 6.16089 5.34592 6.26409C4.63896 6.87074 4.10079 7.65004 3.7883 8.52C3.75161 8.62235 3.68681 8.71228 3.60135 8.77949C3.51588 8.8467 3.41321 8.88847 3.3051 8.9L2.15737 9.02152V11.1617L3.10641 11.2118C3.36007 11.2254 3.57418 11.4018 3.63687 11.6478C4.01398 13.1379 5.018 14.3965 6.39238 15.1006C6.57177 15.1922 6.68944 15.3707 6.70583 15.5713L6.77624 16.4846H8.22103L8.24128 16.2223C8.25241 16.0769 8.318 15.9412 8.42494 15.8421C8.53187 15.743 8.67227 15.688 8.81804 15.688H12.485C12.6287 15.688 12.7791 15.6812 12.947 15.6668C13.1013 15.6542 13.2537 15.7024 13.3704 15.8027C13.4285 15.8523 13.4763 15.9128 13.5111 15.9808C13.5459 16.0488 13.5669 16.123 13.5729 16.1991L13.597 16.4837Z" fill="white"/>
<path id="Vector_2" d="M5.7356 8.51807C5.7356 8.74087 5.8241 8.95454 5.98164 9.11209C6.13918 9.26963 6.35286 9.35813 6.57565 9.35813C6.79845 9.35813 7.01212 9.26963 7.16966 9.11209C7.32721 8.95454 7.41571 8.74087 7.41571 8.51807C7.41571 8.29528 7.32721 8.08161 7.16966 7.92406C7.01212 7.76652 6.79845 7.67802 6.57565 7.67802C6.35286 7.67802 6.13918 7.76652 5.98164 7.92406C5.8241 8.08161 5.7356 8.29528 5.7356 8.51807Z" fill="white"/>
</g>
</g>
</svg>
