<svg width="20" height="20" viewBox="0 0 20 20" fill="none" xmlns="http://www.w3.org/2000/svg">
<g id="&#233;&#166;&#150;&#233;&#161;&#181;-&#231;&#189;&#174;&#231;&#129;&#176;">
<g id="Vector">
<path d="M10 19C5.04229 19 1 14.9577 1 10C1 5.04229 5.04229 1 10 1C14.9577 1 19 5.04229 19 10C19 14.9577 14.9577 19 10 19ZM10 2.23429C5.72114 2.23429 2.23429 5.72114 2.23429 10C2.23429 14.2789 5.72114 17.7657 10 17.7657C14.2789 17.7657 17.7657 14.2789 17.7657 10C17.7657 5.72114 14.2789 2.23429 10 2.23429Z" fill="white"/>
<path d="M10.8537 4.672C11.4503 4.816 11.7383 5.51543 11.6046 6.112C11.4606 6.70857 10.9051 7.21257 10.3086 7.06857C9.712 6.92457 9.48571 6.23543 9.61943 5.63886C9.76343 5.04228 10.2571 4.528 10.8537 4.672ZM8.29257 9.08457C8.29257 9.08457 10.0926 7.51086 10.792 7.81943C11.2651 7.94286 11.008 10.072 10.936 10.36C10.9154 10.6171 10.504 13.8571 10.6069 14.0011C10.7509 14.536 10.9154 14.1143 11.4194 13.6926C11.4194 13.6926 12.6023 12.8903 11.3371 14.5566C10.288 15.6777 9.26971 15.5337 9.11543 14.6903C8.992 14.0526 9.496 10.1954 9.61943 9.33143C9.66057 9.04343 9.30057 9.33143 9.30057 9.33143C9.30057 9.33143 8.32343 9.93829 8.08686 9.52686C8.02514 9.41371 8.11771 9.23886 8.29257 9.08457Z" fill="white"/>
</g>
</g>
</svg>
