<svg width="20" height="20" viewBox="0 0 20 20" fill="none" xmlns="http://www.w3.org/2000/svg">
<g id="&#233;&#166;&#150;&#233;&#161;&#181;-&#231;&#189;&#174;&#231;&#129;&#176;">
<path id="Vector" d="M7.3 17.2C7.53869 17.2 7.76761 17.2948 7.9364 17.4636C8.10518 17.6324 8.2 17.8613 8.2 18.1C8.2 18.3387 8.10518 18.5676 7.9364 18.7364C7.76761 18.9052 7.53869 19 7.3 19H6.4C4.96783 19 3.59432 18.4311 2.58162 17.4184C1.56893 16.4057 1 15.0322 1 13.6V12.7C1 12.4613 1.09482 12.2324 1.2636 12.0636C1.43239 11.8948 1.66131 11.8 1.9 11.8C2.13869 11.8 2.36761 11.8948 2.5364 12.0636C2.70518 12.2324 2.8 12.4613 2.8 12.7V13.6C2.8 14.5548 3.17928 15.4705 3.85442 16.1456C4.52955 16.8207 5.44522 17.2 6.4 17.2H7.3ZM2.8 10C2.8 10.2387 2.70518 10.4676 2.5364 10.6364C2.36761 10.8052 2.13869 10.9 1.9 10.9C1.66131 10.9 1.43239 10.8052 1.2636 10.6364C1.09482 10.4676 1 10.2387 1 10V6.4C1 4.96783 1.56893 3.59432 2.58162 2.58162C3.59432 1.56893 4.96783 1 6.4 1H13.6C15.0322 1 16.4057 1.56893 17.4184 2.58162C18.4311 3.59432 19 4.96783 19 6.4V13.6C19 15.0322 18.4311 16.4057 17.4184 17.4184C16.4057 18.4311 15.0322 19 13.6 19H10C9.7613 19 9.53239 18.9052 9.3636 18.7364C9.19482 18.5676 9.1 18.3387 9.1 18.1C9.1 17.8613 9.19482 17.6324 9.3636 17.4636C9.53239 17.2948 9.7613 17.2 10 17.2H13.6C14.5548 17.2 15.4705 16.8207 16.1456 16.1456C16.8207 15.4705 17.2 14.5548 17.2 13.6V6.4C17.2 5.44522 16.8207 4.52955 16.1456 3.85442C15.4705 3.17928 14.5548 2.8 13.6 2.8H6.4C5.44522 2.8 4.52955 3.17928 3.85442 3.85442C3.17928 4.52955 2.8 5.44522 2.8 6.4V10ZM11.8 5.5C11.8 5.73638 11.8466 5.97044 11.937 6.18883C12.0275 6.40722 12.1601 6.60565 12.3272 6.77279C12.4944 6.93994 12.6928 7.07252 12.9112 7.16298C13.1296 7.25344 13.3636 7.3 13.6 7.3H14.14C14.338 7.3 14.5 7.462 14.5 7.66V8.74C14.5 8.83548 14.4621 8.92704 14.3946 8.99456C14.327 9.06207 14.2355 9.1 14.14 9.1H13.6C12.968 9.10101 12.3471 8.9349 11.8 8.6185V12.25C11.8 12.873 11.6153 13.482 11.2691 14C10.923 14.5181 10.431 14.9218 9.85545 15.1602C9.27987 15.3986 8.6465 15.461 8.03546 15.3395C7.42442 15.2179 6.86315 14.9179 6.42261 14.4774C5.98208 14.0369 5.68207 13.4756 5.56053 12.8645C5.43898 12.2535 5.50136 11.6201 5.73978 11.0445C5.9782 10.469 6.38194 9.977 6.89995 9.63087C7.41797 9.28474 8.02699 9.1 8.65 9.1H8.74C8.938 9.1 9.1 9.262 9.1 9.46V10.54C9.1 10.6355 9.06207 10.727 8.99456 10.7946C8.92704 10.8621 8.83548 10.9 8.74 10.9H8.65C8.38299 10.9 8.12199 10.9792 7.89998 11.1275C7.67797 11.2759 7.50494 11.4867 7.40276 11.7334C7.30058 11.9801 7.27385 12.2515 7.32594 12.5134C7.37803 12.7752 7.5066 13.0158 7.69541 13.2046C7.88421 13.3934 8.12475 13.522 8.38663 13.5741C8.6485 13.6262 8.91994 13.5994 9.16662 13.4972C9.4133 13.3951 9.62414 13.222 9.77248 13C9.92082 12.778 10 12.517 10 12.25V4.96C10 4.762 10.162 4.6 10.36 4.6H11.44C11.638 4.6 11.8 4.762 11.8 4.96V5.5Z" fill="white"/>
</g>
</svg>
