<svg width="20" height="20" viewBox="0 0 20 20" fill="none" xmlns="http://www.w3.org/2000/svg">
<g id="&#233;&#166;&#150;&#233;&#161;&#181;-&#231;&#189;&#174;&#231;&#129;&#176;">
<path id="Vector" d="M9.17359 1.29291C9.40723 1.10342 9.69892 1 9.99974 1C10.3006 1 10.5923 1.10342 10.8259 1.29291L18.4951 7.47959C19.0715 7.94432 19.1688 8.79687 18.7123 9.38432C18.5306 9.61923 18.2753 9.78645 17.9874 9.85927L17.9162 9.87482L17.9166 16.8073C17.9166 17.9458 17.0637 18.8875 15.9506 18.991L15.8597 18.998L15.7648 19H4.23507C3.08758 19 2.14381 18.0832 2.08531 16.9038L2.08327 16.8073L2.08286 9.87482L2.03581 9.86541C1.46636 9.73409 1.03559 9.23091 1.00205 8.61973L1 8.54282C1 8.12841 1.18573 7.73691 1.50482 7.47918L9.17359 1.29291ZM10.0695 2.25223C10.0498 2.23629 10.0253 2.22759 9.99995 2.22759C9.97463 2.22759 9.95008 2.23629 9.9304 2.25223L2.2694 8.44955C2.25608 8.46046 2.24536 8.4742 2.238 8.48976C2.23064 8.50532 2.22684 8.52233 2.22686 8.53955C2.22686 8.60337 2.27717 8.65491 2.33936 8.65491H2.70017C3.03644 8.6545 3.3089 8.93309 3.3089 9.27632V16.8036L3.31012 16.8686C3.33508 17.3739 3.74458 17.7727 4.24162 17.7727H15.7427L15.8066 17.7711C16.3007 17.7457 16.6906 17.3272 16.6906 16.8195V9.27673C16.6906 8.93309 16.963 8.65491 17.2993 8.65491H17.6601C17.6945 8.65491 17.7268 8.63896 17.7485 8.61155C17.767 8.58748 17.7754 8.55718 17.772 8.52703C17.7685 8.49688 17.7535 8.46925 17.7301 8.44996L10.0695 2.25223ZM12.7183 13.0809C12.8235 13.2051 12.875 13.366 12.8614 13.5282C12.8479 13.6904 12.7706 13.8405 12.6463 13.9457C11.8957 14.581 11.0759 14.9091 10.2045 14.9091C9.33313 14.9091 8.51332 14.581 7.76223 13.9457C7.70072 13.8936 7.65008 13.8299 7.61319 13.7582C7.5763 13.6865 7.55389 13.6082 7.54725 13.5279C7.5406 13.4476 7.54984 13.3667 7.57444 13.2899C7.59905 13.2131 7.63853 13.142 7.69064 13.0805C7.74275 13.0189 7.80647 12.9683 7.87815 12.9314C7.94984 12.8945 8.02808 12.8721 8.10843 12.8655C8.18877 12.8588 8.26964 12.8681 8.34641 12.8927C8.42318 12.9173 8.49435 12.9568 8.55587 13.0089C9.093 13.4642 9.63668 13.6818 10.2045 13.6818C10.7719 13.6818 11.3156 13.4642 11.8531 13.0089C11.9146 12.9567 11.9858 12.9173 12.0626 12.8927C12.1394 12.8681 12.2203 12.8589 12.3007 12.8656C12.381 12.8722 12.4593 12.8947 12.5309 12.9316C12.6026 12.9686 12.6663 13.0193 12.7183 13.0809Z" fill="white"/>
</g>
</svg>
