<svg width="20" height="20" viewBox="0 0 20 20" fill="none" xmlns="http://www.w3.org/2000/svg">
<g id="&#233;&#166;&#150;&#233;&#161;&#181;-&#231;&#189;&#174;&#231;&#129;&#176;">
<g id="Group 741978">
<path id="Vector" d="M16.3 1H3.7C2.98392 1 2.29716 1.28446 1.79081 1.79081C1.28446 2.29716 1 2.98392 1 3.7L1 16.3C1 17.0161 1.28446 17.7028 1.79081 18.2092C2.29716 18.7155 2.98392 19 3.7 19H14.005C14.1181 18.972 14.221 18.9127 14.302 18.829L18.802 14.329C18.8692 14.266 18.9217 14.189 18.9559 14.1035C18.9902 14.018 19.0052 13.926 19 13.834V3.7C19 2.98392 18.7155 2.29716 18.2092 1.79081C17.7028 1.28446 17.0161 1 16.3 1ZM17.65 10.198V13.546L13.546 17.65H3.7C3.34196 17.65 2.99858 17.5078 2.74541 17.2546C2.49223 17.0014 2.35 16.658 2.35 16.3V3.7C2.35 3.34196 2.49223 2.99858 2.74541 2.74541C2.99858 2.49223 3.34196 2.35 3.7 2.35H16.3C16.658 2.35 17.0014 2.49223 17.2546 2.74541C17.5078 2.99858 17.65 3.34196 17.65 3.7V10.198Z" fill="#0E3A66"/>
<path id="Vector_2" d="M12.7 13.177C12.5736 13.0504 12.5026 12.8789 12.5026 12.7C12.5026 12.5211 12.5736 12.3496 12.7 12.223L14.896 10L12.7 7.777C12.6177 7.65014 12.5804 7.49934 12.5941 7.34876C12.6078 7.19819 12.6716 7.05657 12.7754 6.94659C12.8791 6.83661 13.0168 6.76465 13.1663 6.74224C13.3158 6.71983 13.4685 6.74827 13.6 6.823L16.3 9.523C16.4264 9.64956 16.4974 9.82113 16.4974 10C16.4974 10.1789 16.4264 10.3504 16.3 10.477L13.6 13.177C13.4734 13.3034 13.3018 13.3744 13.123 13.3744C12.9441 13.3744 12.7725 13.3034 12.646 13.177H12.7ZM6.39997 13.177L3.69997 10.477C3.57356 10.3504 3.50256 10.1789 3.50256 10C3.50256 9.82113 3.57356 9.64956 3.69997 9.523L6.39997 6.823C6.5314 6.74827 6.68412 6.71983 6.83364 6.74224C6.98317 6.76465 7.12084 6.83661 7.22459 6.94659C7.32834 7.05657 7.39216 7.19819 7.40583 7.34876C7.4195 7.49934 7.38222 7.65014 7.29997 7.777L5.10397 10L7.29997 12.223C7.38886 12.2735 7.46511 12.3436 7.52295 12.4279C7.5808 12.5123 7.61873 12.6086 7.63389 12.7097C7.64904 12.8109 7.64103 12.9141 7.61044 13.0117C7.57986 13.1093 7.5275 13.1986 7.45733 13.273C7.38717 13.3474 7.30101 13.4048 7.20539 13.441C7.10976 13.4773 7.00716 13.4913 6.90532 13.482C6.80348 13.4728 6.70508 13.4405 6.61754 13.3877C6.52999 13.3348 6.4556 13.2628 6.39997 13.177Z" fill="#0E3A66"/>
<path id="Vector_3" d="M8.20006 14.725C8.08778 14.7254 7.97718 14.6978 7.87827 14.6446C7.77936 14.5915 7.69527 14.5145 7.6336 14.4207C7.57194 14.3269 7.53466 14.2191 7.52514 14.1073C7.51561 13.9954 7.53415 13.8829 7.57906 13.78L11.1791 5.68C11.2537 5.51588 11.3902 5.38788 11.5587 5.32384C11.7272 5.25979 11.9143 5.26488 12.0791 5.338C12.1628 5.37197 12.2386 5.42284 12.3018 5.48744C12.365 5.55204 12.4142 5.62898 12.4463 5.71345C12.4784 5.79791 12.4927 5.88809 12.4884 5.97835C12.484 6.06861 12.4611 6.157 12.4211 6.238L8.82106 14.338C8.76859 14.4576 8.68122 14.5585 8.57041 14.6275C8.4596 14.6966 8.33051 14.7306 8.20006 14.725Z" fill="#0E3A66"/>
</g>
</g>
</svg>
