<svg width="20" height="20" viewBox="0 0 20 20" fill="none" xmlns="http://www.w3.org/2000/svg">
<g id="&#233;&#166;&#150;&#233;&#161;&#181;-&#231;&#189;&#174;&#231;&#129;&#176;">
<g id="Vector">
<path d="M17.4242 15.5152V4.48485C17.4242 4.42859 17.4018 4.37464 17.3621 4.33486C17.3223 4.29508 17.2683 4.27273 17.2121 4.27273H2.78783C2.73157 4.27273 2.67762 4.29508 2.63783 4.33486C2.59805 4.37464 2.57571 4.42859 2.57571 4.48485V15.5152C2.57571 15.5714 2.59805 15.6254 2.63783 15.6651C2.67762 15.7049 2.73157 15.7273 2.78783 15.7273H3.70928C3.76543 15.7273 3.81929 15.705 3.85904 15.6653L6.33195 13.1924C6.61033 12.9141 6.98785 12.7577 7.38152 12.7576H12.6184C13.012 12.7577 13.3896 12.9141 13.6679 13.1924L16.1409 15.6653C16.1806 15.705 16.2345 15.7273 16.2906 15.7273H17.2121C17.2683 15.7273 17.3223 15.7049 17.3621 15.6651C17.4018 15.6254 17.4242 15.5714 17.4242 15.5152ZM16.2906 17C15.8969 16.9999 15.5194 16.8435 15.241 16.5652L12.7681 14.0922C12.7284 14.0526 12.6745 14.0303 12.6184 14.0303H7.38152C7.32538 14.0303 7.27152 14.0526 7.23177 14.0922L4.75886 16.5652C4.48048 16.8435 4.10295 16.9999 3.70928 17H2.78783C2.39402 17 2.01634 16.8436 1.73788 16.5651C1.45942 16.2866 1.30298 15.909 1.30298 15.5152V4.48485C1.30298 4.09104 1.45942 3.71337 1.73788 3.4349C2.01634 3.15644 2.39402 3 2.78783 3H17.2121C17.6059 3 17.9836 3.15644 18.262 3.4349C18.5405 3.71337 18.6969 4.09104 18.6969 4.48485V15.5152C18.6969 15.909 18.5405 16.2866 18.262 16.5651C17.9836 16.8436 17.6059 17 17.2121 17H16.2906Z" fill="#0E3A66"/>
<path d="M6.18177 11.0606C5.56293 11.0606 4.96944 10.8148 4.53185 10.3772C4.09427 9.9396 3.84843 9.34611 3.84843 8.72727C3.84843 8.10843 4.09427 7.51494 4.53185 7.07736C4.96944 6.63977 5.56293 6.39394 6.18177 6.39394C6.80061 6.39394 7.3941 6.63977 7.83168 7.07736C8.26927 7.51494 8.5151 8.10843 8.5151 8.72727C8.5151 9.34611 8.26927 9.9396 7.83168 10.3772C7.3941 10.8148 6.80061 11.0606 6.18177 11.0606ZM6.18177 9.78788C6.32105 9.78788 6.45896 9.76045 6.58764 9.70714C6.71632 9.65384 6.83324 9.57572 6.93173 9.47723C7.03022 9.37875 7.10834 9.26183 7.16164 9.13315C7.21494 9.00447 7.24237 8.86655 7.24237 8.72727C7.24237 8.58799 7.21494 8.45007 7.16164 8.3214C7.10834 8.19272 7.03022 8.0758 6.93173 7.97731C6.83324 7.87882 6.71632 7.8007 6.58764 7.7474C6.45896 7.6941 6.32105 7.66667 6.18177 7.66667C5.90048 7.66667 5.63071 7.77841 5.4318 7.97731C5.2329 8.17621 5.12116 8.44598 5.12116 8.72727C5.12116 9.00856 5.2329 9.27833 5.4318 9.47723C5.63071 9.67614 5.90048 9.78788 6.18177 9.78788Z" fill="#0E3A66"/>
<path d="M15.7059 6.62738C16.0059 6.92736 16.0059 7.22735 15.7059 7.52733L12.4061 10.8272C12.1061 11.1271 11.8061 11.1271 11.5061 10.8272C11.2061 10.5272 11.2061 10.2272 11.5061 9.92721L14.8059 6.62738C15.1059 6.3274 15.4059 6.3274 15.7059 6.62738Z" fill="#0E3A66"/>
<path d="M11.5061 6.62738C11.8061 6.3274 12.1061 6.3274 12.4061 6.62738L15.7059 9.92721C16.0059 10.2272 16.0059 10.5272 15.7059 10.8272C15.4059 11.1271 15.1059 11.1271 14.8059 10.8272L11.5061 7.52733C11.2061 7.22735 11.2061 6.92736 11.5061 6.62738Z" fill="#0E3A66"/>
</g>
</g>
</svg>
