<svg width="20" height="20" viewBox="0 0 20 20" fill="none" xmlns="http://www.w3.org/2000/svg">
<g id="24gl-paperPlane 1">
<path id="Vector" d="M18.878 2.11492C18.8242 2.06318 18.7569 2.02699 18.6834 2.01033C18.6099 1.99368 18.5331 1.99721 18.4616 2.02054L1.27972 7.62053C1.20549 7.64473 1.13992 7.68922 1.09077 7.74875C1.04163 7.80828 1.01097 7.88034 1.00244 7.95639C0.993908 8.03244 1.00786 8.10928 1.04264 8.17781C1.07742 8.24634 1.13157 8.30368 1.19867 8.34303L5.09092 10.6265V16C5.09091 16.0791 5.11489 16.1565 5.15985 16.2223C5.2048 16.2881 5.26869 16.3393 5.34345 16.3696C5.41821 16.3999 5.50048 16.4078 5.57984 16.3924C5.65921 16.377 5.73211 16.3388 5.78932 16.2829L8.77275 13.3658L13.3925 17.8829C13.4423 17.9315 13.5039 17.9667 13.5716 17.9852C13.6393 18.0037 13.7107 18.0049 13.779 17.9885C13.8473 17.9722 13.9101 17.939 13.9614 17.892C14.0127 17.845 14.0507 17.7859 14.0719 17.7204L18.981 2.52042C19.0037 2.45011 19.0061 2.37503 18.9879 2.30347C18.9697 2.23191 18.9317 2.16666 18.878 2.11492ZM15.4588 3.84266L5.49567 9.93103L2.38222 8.10453L15.4588 3.84266ZM5.90911 10.6218L16.2224 4.31916L8.47769 12.5229L5.90911 15.0344V10.6218ZM13.4947 16.8513L9.33985 12.7888L17.6495 3.98704L13.4947 16.8513Z" fill="#5269FD"/>
</g>
</svg>
