<svg width="20" height="20" viewBox="0 0 20 20" fill="none" xmlns="http://www.w3.org/2000/svg">
<g id="&#230;&#156;&#170;&#231;&#153;&#187;&#229;&#189;&#149;">
<path id="Vector" d="M17.4545 19H3.54545C2.69332 19 2 18.3436 2 17.5367V15.4791C2 13.1516 4.07991 11.2581 6.63637 11.2581H14.3636C16.9201 11.2581 19 13.1516 19 15.4791V17.5367C19 18.3436 18.3067 19 17.4545 19ZM3.54545 17.4444L17.4545 17.4516V15.4791C17.4545 14.0054 16.0679 12.8065 14.3636 12.8065H6.63635C4.93205 12.8065 3.54545 14.0054 3.54545 15.4791V17.4444ZM10.4938 10.6774C7.83074 10.6774 5.66422 8.50682 5.66422 5.83872C5.66422 3.17063 7.83072 1 10.4938 1C13.1568 1 15.3233 3.17061 15.3233 5.83872C15.3233 8.50682 13.1568 10.6774 10.4938 10.6774ZM10.4938 2.54838C8.68287 2.54838 7.20967 4.02438 7.20967 5.83872C7.20967 7.65305 8.68289 9.12905 10.4938 9.12905C12.3046 9.12905 13.7779 7.65305 13.7779 5.83872C13.7779 4.02438 12.3047 2.54838 10.4938 2.54838Z" fill="#5269FD"/>
</g>
</svg>
